<svg width="12" height="12" viewBox="0 0 12 12" fill="none" xmlns="http://www.w3.org/2000/svg">
<path id="Union" fill-rule="evenodd" clip-rule="evenodd" d="M10.5 6C10.5 8.48528 8.48528 10.5 6 10.5C3.51472 10.5 1.5 8.48528 1.5 6C1.5 3.51472 3.51472 1.5 6 1.5C8.48528 1.5 10.5 3.51472 10.5 6ZM12 6C12 9.31371 9.31371 12 6 12C2.68629 12 0 9.31371 0 6C0 2.68629 2.68629 0 6 0C9.31371 0 12 2.68629 12 6ZM6.52364 3.16114V2.25H5.77091V3.16114C5.48727 3.18624 5.24182 3.25402 5.03455 3.36446C4.82727 3.46988 4.65273 3.60291 4.51091 3.76355C4.37455 3.91918 4.27091 4.09739 4.2 4.29819C4.13455 4.499 4.10182 4.70733 4.10182 4.92319C4.10182 5.12902 4.13182 5.31225 4.19182 5.47289C4.25182 5.62851 4.34455 5.76908 4.47 5.89458C4.59545 6.02008 4.75636 6.13052 4.95273 6.2259C5.14909 6.32128 5.38636 6.40914 5.66455 6.48946L6.13091 6.625C6.48545 6.73042 6.66273 6.89357 6.66273 7.11446C6.66273 7.2751 6.58636 7.40562 6.43364 7.50602C6.28636 7.60643 6.11182 7.65663 5.91 7.65663C5.42455 7.65663 4.92545 7.44829 4.41273 7.03163L3.75 8.16867C3.85364 8.25904 3.98455 8.34689 4.14273 8.43223C4.30636 8.51255 4.48091 8.58534 4.66636 8.6506C4.85182 8.71084 5.04 8.76104 5.23091 8.8012C5.42182 8.83634 5.60182 8.85392 5.77091 8.85392V9.75H6.52364V8.81626C6.84 8.7259 7.10727 8.6255 7.32545 8.51506C7.54909 8.40462 7.72909 8.27661 7.86545 8.13102C8.00182 7.98544 8.1 7.81978 8.16 7.63404C8.22 7.44829 8.25 7.23494 8.25 6.99398C8.25 6.59739 8.13 6.2761 7.89 6.03012C7.65 5.77912 7.26 5.56827 6.72 5.39759L6.23727 5.24699C6.06818 5.19177 5.93182 5.11898 5.82818 5.02861C5.72455 4.93825 5.67273 4.84287 5.67273 4.74247C5.67273 4.63203 5.73818 4.53414 5.86909 4.44879C6 4.35843 6.16909 4.31325 6.37636 4.31325C6.71455 4.31325 7.05818 4.43624 7.40727 4.68223L8.01273 3.59789C7.60909 3.36195 7.11273 3.21637 6.52364 3.16114Z" fill="black"/>
</svg>
