<svg width="12" height="12" viewBox="0 0 12 12" fill="none" xmlns="http://www.w3.org/2000/svg">
<g id="Group 261">
<path id="Vector" d="M2.13758 6.00138C2.11793 3.87946 3.87048 2.14263 5.98454 2.1387C8.10646 2.13084 9.86293 3.88732 9.85507 6.01316C9.84721 8.12329 8.11431 9.86405 5.98847 9.86405C3.87048 9.86405 2.11793 8.12722 2.13365 6.0053L2.13758 6.00138ZM5.57587 4.92863C5.57587 5.26263 5.57587 5.59664 5.57587 5.93064C5.57587 6.09568 5.6191 6.24107 5.76056 6.33931C6.1928 6.63009 6.62504 6.92087 7.06121 7.2038C7.19482 7.29024 7.34414 7.27846 7.48167 7.2038C7.62313 7.12521 7.67814 6.99553 7.67421 6.83442C7.67028 6.67332 7.58384 6.57115 7.45809 6.48863C7.15552 6.2843 6.85295 6.07996 6.54645 5.88349C6.44429 5.82062 6.40499 5.74596 6.40499 5.62415C6.41285 5.06223 6.40892 4.50424 6.40499 3.94233C6.40499 3.70263 6.29497 3.53366 6.11814 3.47865C5.83522 3.3922 5.5798 3.58868 5.57194 3.90696C5.56801 4.24883 5.57194 4.59069 5.57194 4.93649L5.57587 4.92863Z" fill="black"/>
<path id="Vector_2" d="M3.26147 1.71404C3.32827 1.71404 3.39507 1.71404 3.45794 1.71404C3.68978 1.72583 3.86268 1.90659 3.86268 2.14235C3.86268 2.38598 3.69371 2.58246 3.45794 2.58246C3.00998 2.59031 2.55809 2.59031 2.11013 2.58246C1.89008 2.58246 1.71325 2.39777 1.71325 2.17772C1.70932 1.73369 1.70932 1.28573 1.71325 0.841697C1.71325 0.601999 1.9058 0.429102 2.14942 0.429102C2.38912 0.429102 2.57381 0.601999 2.5856 0.841697C2.5856 0.900639 2.55416 0.987088 2.60917 1.01459C2.66419 1.0421 2.71527 0.96744 2.76635 0.936004C3.57975 0.429102 4.45996 0.122602 5.41875 0.028295C8.50732 -0.270345 11.3523 1.82407 11.8945 4.93621C12.2639 7.05027 11.643 8.88534 10.0909 10.3785C9.1714 11.2627 8.05936 11.7735 6.79407 11.9464C4.15346 12.3001 1.5993 10.8776 0.518691 8.44917C0.176827 7.68685 0 6.88916 0 6.05218C0 5.75354 0.161109 5.56493 0.428313 5.56493C0.695518 5.56493 0.868415 5.73783 0.876274 6.03647C0.915568 7.4668 1.42247 8.70458 2.45592 9.70267C3.30076 10.5161 4.31457 10.9955 5.48948 11.1016C7.22631 11.2587 8.68808 10.6772 9.8512 9.38438C10.5782 8.57884 10.9947 7.61612 11.0929 6.53158C11.2422 4.8812 10.7235 3.46659 9.54077 2.31132C8.72344 1.51757 7.73321 1.05782 6.59759 0.928145C5.42268 0.794543 4.33421 1.03817 3.32434 1.64724C3.30076 1.65903 3.28111 1.67475 3.25754 1.69046C3.25754 1.69832 3.26147 1.71011 3.2654 1.71797L3.26147 1.71404Z" fill="black"/>
</g>
</svg>
