<svg width="8" height="12" viewBox="0 0 8 12" fill="none" xmlns="http://www.w3.org/2000/svg">
<path id="?" d="M2.4785 7.86935V4.92965C2.59514 4.94975 2.70206 4.96985 2.79925 4.98995C2.89645 5 2.98879 5.00502 3.07626 5.00502C3.33869 5.00502 3.58654 4.96985 3.81981 4.8995C4.05308 4.81909 4.25234 4.71357 4.41757 4.58291C4.59252 4.45226 4.7286 4.29648 4.8258 4.11558C4.92299 3.92462 4.97159 3.71859 4.97159 3.49749C4.97159 3.19598 4.87439 2.93467 4.68 2.71357C4.48561 2.49246 4.22318 2.38191 3.89271 2.38191C3.5914 2.38191 3.34841 2.48744 3.16374 2.69849C2.98879 2.90955 2.90131 3.18593 2.90131 3.52764H0C0 3.01508 0.0971963 2.54774 0.291589 2.12563C0.495701 1.69347 0.77271 1.32161 1.12262 1.01005C1.48224 0.688443 1.90019 0.442211 2.37645 0.271357C2.86243 0.0904523 3.38729 0 3.95103 0C4.52449 0 5.04449 0.100502 5.51103 0.301507C5.98729 0.492462 6.39551 0.753769 6.7357 1.08543C7.07589 1.41709 7.33832 1.799 7.52299 2.23116C7.70766 2.66332 7.8 3.11055 7.8 3.57286C7.8 5.0804 6.92037 6.15075 5.16112 6.78392V7.86935H2.4785ZM2.18692 10.2362C2.18692 9.99497 2.23065 9.76884 2.31813 9.55779C2.40561 9.33668 2.5271 9.14573 2.68262 8.98492C2.83813 8.82412 3.01794 8.69849 3.22206 8.60804C3.43589 8.51759 3.65944 8.47236 3.89271 8.47236C4.12598 8.47236 4.34467 8.51759 4.54879 8.60804C4.76262 8.69849 4.94729 8.82412 5.1028 8.98492C5.25832 9.14573 5.37981 9.33668 5.46729 9.55779C5.55477 9.76884 5.59851 9.99497 5.59851 10.2362C5.59851 10.4774 5.55477 10.7085 5.46729 10.9296C5.37981 11.1407 5.25832 11.3266 5.1028 11.4874C4.94729 11.6482 4.76262 11.7739 4.54879 11.8643C4.34467 11.9548 4.12598 12 3.89271 12C3.65944 12 3.43589 11.9548 3.22206 11.8643C3.01794 11.7739 2.83813 11.6482 2.68262 11.4874C2.5271 11.3266 2.40561 11.1407 2.31813 10.9296C2.23065 10.7085 2.18692 10.4774 2.18692 10.2362Z" fill="black"/>
</svg>
