<?xml version="1.0" standalone="no"?><!DOCTYPE svg  PUBLIC "-//W3C//DTD SVG 1.1//EN" "http://www.w3.org/Graphics/SVG/1.1/DTD/svg11.dtd"><svg t="1714444116044" class="icon" viewBox="0 0 1024 1024" version="1.1" xmlns="http://www.w3.org/2000/svg" p-id="5128" xmlns:xlink="http://www.w3.org/1999/xlink" width="200" height="200"><path d="M341.333333 181.333333a32 32 0 0 1 0 64h-50.752l126.4 126.4a32 32 0 1 1-45.248 45.226667L245.333333 290.602667V341.333333a32 32 0 0 1-28.928 31.850667L213.333333 373.333333A32 32 0 0 1 181.333333 341.333333v-128A32 32 0 0 1 213.333333 181.333333h128zM341.333333 844.949333a32 32 0 0 0 0-64h-50.752l126.4-126.4a32 32 0 1 0-45.248-45.248L245.333333 735.701333v-50.773333a32 32 0 0 0-28.928-31.850667L213.333333 652.949333a32 32 0 0 0-32 32v128a32 32 0 0 0 32 32h128zM684.949333 181.333333a32 32 0 1 0 0 64h50.752l-126.4 126.4a32 32 0 0 0 45.248 45.226667l126.4-126.378667V341.333333a32 32 0 0 0 28.906667 31.850667l3.093333 0.149333a32 32 0 0 0 32-32v-128a32 32 0 0 0-32-32h-128zM684.949333 844.949333a32 32 0 1 1 0-64h50.752l-126.4-126.4a32 32 0 0 1 45.248-45.248l126.4 126.4v-50.773333a32 32 0 0 1 28.906667-31.850667l3.093333-0.128a32 32 0 0 1 32 32v128a32 32 0 0 1-32 32h-128z" fill="currentColor" p-id="5129"></path></svg>