<svg width="20" height="20" viewBox="0 0 20 20" fill="none" xmlns="http://www.w3.org/2000/svg">
<path id="Vector" d="M0 11.0001H5.477C5.64812 14.167 6.65755 17.2315 8.402 19.8801C6.21693 19.5369 4.2072 18.4793 2.68702 16.8726C1.16684 15.2659 0.221918 13.2008 0 11.0001ZM0 9.00012C0.221918 6.79942 1.16684 4.73429 2.68702 3.12763C4.2072 1.52097 6.21693 0.46334 8.402 0.120117C6.65755 2.76873 5.64812 5.83326 5.477 9.00012H0ZM19.9 9.00012H14.423C14.2519 5.83326 13.2425 2.76873 11.498 0.120117C13.6831 0.46334 15.6928 1.52097 17.213 3.12763C18.7332 4.73429 19.6781 6.79942 19.9 9.00012ZM19.9 11.0001C19.6781 13.2008 18.7332 15.2659 17.213 16.8726C15.6928 18.4793 13.6831 19.5369 11.498 19.8801C13.2425 17.2315 14.2519 14.167 14.423 11.0001H19.901H19.9ZM7.48 11.0001H12.42C12.2554 13.6996 11.4053 16.3126 9.95 18.5921C8.4947 16.3126 7.64459 13.6996 7.48 11.0001ZM7.48 9.00012C7.64459 6.30063 8.4947 3.68768 9.95 1.40812C11.4053 3.68768 12.2554 6.30063 12.42 9.00012H7.48Z" fill="black"/>
</svg>
