<svg width="36" height="35" viewBox="0 0 36 35" fill="none" xmlns="http://www.w3.org/2000/svg">
<g id="Group 44" filter="url(#filter0_d_130_146)">
<path id="Vector" d="M23.4931 3.12565C23.9443 3.19054 24.1927 3.44937 24.3001 3.89245C24.3904 4.26018 24.5485 4.61076 24.6537 4.97551C24.7014 5.1411 24.8312 5.15602 24.9454 5.19705C25.3109 5.32833 25.6786 5.45289 26.0501 5.56627C26.3678 5.66324 26.5595 5.87284 26.661 6.18016C26.781 6.54491 26.9123 6.90593 27.0227 7.27292C27.0757 7.44821 27.1622 7.54369 27.3457 7.5959C27.7209 7.70107 28.0871 7.83758 28.4556 7.9614C28.7435 8.05837 28.9449 8.23888 29.0389 8.53575C29.1613 8.92512 29.2985 9.31001 29.4186 9.70012C29.4611 9.83662 29.5253 9.91867 29.6692 9.96417C30.0735 10.0925 30.4681 10.2513 30.8739 10.3737C31.4758 10.5549 31.6019 11.2956 31.2103 11.7156C30.5449 12.4302 30.3249 13.2723 30.5449 14.2248C30.6113 14.5105 30.7926 14.7485 30.9052 15.0147C30.9858 15.2072 31.1416 15.3273 31.2878 15.463C31.5012 15.6615 31.4915 16.1679 31.2796 16.4021C31.1618 16.5319 31.0342 16.652 30.9097 16.7766C28.8942 18.792 26.8795 20.8068 24.864 22.8222C24.7902 22.8961 24.7104 22.9654 24.6336 23.0363C23.8421 22.2449 23.0515 21.4542 22.2601 20.6628C23.8101 19.1113 25.3534 17.5546 26.9123 16.012C27.3285 15.6003 27.4404 15.1304 26.9317 14.6231C24.6485 12.3429 22.3712 10.0567 20.0783 7.78462C19.8746 7.58247 19.6665 7.35199 19.3077 7.34527C18.9161 7.33856 18.7185 7.60933 18.4977 7.82713C16.973 9.3294 15.4633 10.8451 13.9484 12.3571C13.157 11.5627 12.3648 10.769 11.5741 9.97536C11.7099 9.82618 11.8382 9.67103 11.9807 9.52856C13.5426 7.96364 15.1068 6.40095 16.6695 4.83677C16.75 4.75621 16.8239 4.66894 16.8999 4.5854C17.2841 4.20125 17.6675 3.81487 18.0561 3.4352C18.4432 3.05553 18.9348 3.05479 19.316 3.4255C20.123 4.2102 21.4276 4.34671 22.404 3.77907C22.7568 3.57394 23.0127 3.23007 23.414 3.10178L23.4207 3.10551C23.4364 3.13758 23.4617 3.14056 23.4908 3.12639L23.4931 3.12565Z" fill="#CFFCFF"/>
<path id="Vector_2" d="M22.2615 20.6628C23.0529 21.4542 23.8435 22.2449 24.635 23.0363C23.1976 24.4766 21.761 25.9177 20.3228 27.3573C19.5478 28.1323 18.7713 28.9073 17.9933 29.6794C17.736 29.9352 17.2489 29.9315 16.9841 29.6816C16.5425 29.2639 16.0405 28.9514 15.4237 28.888C14.7471 28.8186 14.1243 28.97 13.5857 29.4101C13.4254 29.5421 13.2747 29.6928 13.0942 29.7898C12.6847 30.0113 12.1066 29.7748 11.9492 29.3325C11.7985 28.9103 11.6591 28.4844 11.5248 28.0578C11.4905 27.9503 11.4435 27.8959 11.3323 27.8623C10.9527 27.7467 10.5775 27.6162 10.2008 27.4901C9.86887 27.379 9.63689 27.1753 9.53768 26.824C9.44071 26.4809 9.30272 26.149 9.20799 25.8051C9.14608 25.5791 9.02748 25.4635 8.79998 25.4031C8.45909 25.3128 8.12791 25.1815 7.79076 25.0756C7.47076 24.9749 7.25221 24.7862 7.15449 24.4513C7.04484 24.0746 6.90237 23.7068 6.789 23.3309C6.74126 23.1728 6.66592 23.0825 6.50182 23.0348C6.11618 22.9251 5.73726 22.7924 5.35386 22.673C4.89811 22.5305 4.72431 22.1777 4.65196 21.7458C4.86678 21.6951 4.85112 21.4631 4.97718 21.3341C5.95208 20.3368 6.02742 18.7398 5.00925 17.7008C4.70492 17.3905 4.61988 16.8997 5.01373 16.5356C5.44486 16.1373 5.84393 15.7054 6.25791 15.2885C8.02945 13.5169 9.80099 11.7454 11.5733 9.9746C12.3647 10.769 13.1569 11.5626 13.9475 12.3563L13.9624 12.3638C13.5582 12.7651 13.1524 13.1664 12.7496 13.5692C11.577 14.7417 10.4037 15.9136 9.23261 17.0861C8.9044 17.4143 8.8507 17.7202 9.02524 18.105C9.09461 18.2594 9.2341 18.3378 9.34375 18.4474C11.6486 20.7568 13.9617 23.0579 16.2584 25.3755C16.6239 25.7439 17.1564 25.7514 17.513 25.3948C19.0966 23.8143 20.6742 22.2292 22.2547 20.6456L22.2607 20.6605L22.2615 20.6628Z" fill="#10E2F0"/>
<path id="Vector_3" d="M23.4927 3.12586C23.4636 3.14003 23.4383 3.13705 23.4226 3.10497C23.4457 3.11168 23.4696 3.11914 23.4927 3.12586Z" fill="#FFB454"/>
<path id="Vector_4" d="M15.7415 14.2248C15.7422 14.1973 15.7429 14.1697 15.7437 14.1421C16.0271 13.9093 16.3635 13.8817 16.7067 13.9131C17.4526 13.9802 18.1567 13.825 18.8556 13.5722C19.6776 13.2753 19.9767 13.4431 20.2602 14.2756C20.4027 14.694 20.4787 15.1416 20.7212 15.5198C20.927 15.839 21.1575 16.1441 21.394 16.4417C21.752 16.8922 21.6565 17.4576 21.1792 17.7769C20.8226 18.0156 20.4892 18.2908 20.1461 18.5489L20.1334 18.5317C18.7534 17.1518 17.3735 15.7719 15.9913 14.3957C15.9205 14.3248 15.869 14.2181 15.7422 14.2256L15.7415 14.2248Z" fill="#CFFCFF"/>
<path id="Vector_5" d="M15.7415 14.225C15.8676 14.2183 15.9205 14.3249 15.9906 14.395C17.3728 15.7727 18.7528 17.1527 20.1327 18.5311C19.768 18.8332 19.5859 19.2748 19.2973 19.6366C18.9847 20.0297 18.5282 20.1401 18.1098 19.8484C17.8539 19.6701 17.5772 19.5142 17.3504 19.3054C17.0804 19.0562 16.7604 18.9421 16.4263 18.8362C16.1428 18.7467 15.8594 18.6557 15.5782 18.5565C15.1485 18.4043 14.9053 17.9985 15.0717 17.5801C15.4372 16.6596 15.5707 15.7146 15.5177 14.7337C15.5066 14.5315 15.5849 14.3577 15.7408 14.2227L15.7415 14.225Z" fill="#10E2F0"/>
</g>
<defs>
<filter id="filter0_d_130_146" x="0.651855" y="0.101807" width="34.7915" height="34.7722" filterUnits="userSpaceOnUse" color-interpolation-filters="sRGB">
<feFlood flood-opacity="0" result="BackgroundImageFix"/>
<feColorMatrix in="SourceAlpha" type="matrix" values="0 0 0 0 0 0 0 0 0 0 0 0 0 0 0 0 0 0 127 0" result="hardAlpha"/>
<feOffset dy="1"/>
<feGaussianBlur stdDeviation="2"/>
<feComposite in2="hardAlpha" operator="out"/>
<feColorMatrix type="matrix" values="0 0 0 0 0.101961 0 0 0 0 0.00784314 0 0 0 0 0.321569 0 0 0 0.6 0"/>
<feBlend mode="normal" in2="BackgroundImageFix" result="effect1_dropShadow_130_146"/>
<feBlend mode="normal" in="SourceGraphic" in2="effect1_dropShadow_130_146" result="shape"/>
</filter>
</defs>
</svg>
