<?xml version="1.0" encoding="UTF-8"?><svg id="uuid-f31b5277-8727-4b05-9070-36ae468aa8b1" xmlns="http://www.w3.org/2000/svg" viewBox="0 0 59.43 59.43"><defs><style>.uuid-6ccc02ea-9514-4e3f-b9bd-36b8a6c1279a{fill:#fff;}.uuid-28513644-a662-4a55-ad16-a424519ffbf8{fill:#00732f;}.uuid-3d8c29c9-6c47-4c78-8805-ca3d868a5a1e{fill:red;}</style></defs><g id="uuid-ab075c11-2c52-406f-89b4-d8e57f336e5d"><g><path class="uuid-3d8c29c9-6c47-4c78-8805-ca3d868a5a1e" d="M20.67,1.41V58.01C8.69,54.18,0,42.95,0,29.71S8.69,5.25,20.67,1.41Z"/><g><path d="M57.73,39.62c-4.09,11.53-15.11,19.81-28.02,19.81-3.15,0-6.19-.49-9.05-1.41v-18.39H57.73Z"/><path class="uuid-28513644-a662-4a55-ad16-a424519ffbf8" d="M57.73,19.81H20.67V1.41c2.85-.92,5.89-1.41,9.05-1.41,12.91,0,23.93,8.28,28.02,19.81Z"/><path class="uuid-6ccc02ea-9514-4e3f-b9bd-36b8a6c1279a" d="M59.43,29.71c0,3.47-.59,6.81-1.69,9.91H20.67V19.81H57.73c1.1,3.09,1.69,6.43,1.69,9.9Z"/></g></g></g></svg>