<?xml version="1.0" standalone="no"?><!DOCTYPE svg PUBLIC "-//W3C//DTD SVG 1.1//EN" "http://www.w3.org/Graphics/SVG/1.1/DTD/svg11.dtd"><svg t="1648547910027" class="icon" viewBox="0 0 1024 1024" version="1.1" xmlns="http://www.w3.org/2000/svg" p-id="11337" xmlns:xlink="http://www.w3.org/1999/xlink" width="48" height="48"><defs><style type="text/css"></style></defs><path d="M0 512c0 220.14 138.944 407.81 333.91 480.152l44.524-480.154-44.524-480.152C138.944 104.19 0 291.858 0 512z" fill="#6DA544" p-id="11338"></path><path d="M1024 512C1024 229.232 794.768 0 512 0c-62.628 0-122.622 11.266-178.09 31.846v960.308C389.378 1012.736 449.372 1024 512 1024c282.768 0 512-229.232 512-512z" fill="#D80027" p-id="11339"></path><path d="M333.914 512m-178.086 0a178.086 178.086 0 1 0 356.172 0 178.086 178.086 0 1 0-356.172 0Z" fill="#FFDA44" p-id="11340"></path><path d="M233.74 422.956v111.304c0 55.324 44.848 100.174 100.174 100.174s100.174-44.848 100.174-100.174v-111.304H233.74z" fill="#D80027" p-id="11341"></path><path d="M333.914 567.652c-18.412 0-33.392-14.98-33.392-33.392v-44.52h66.782v44.522c0 18.41-14.98 33.39-33.39 33.39z" fill="#F0F0F0" p-id="11342"></path></svg>