<?xml version="1.0" standalone="no"?><!DOCTYPE svg PUBLIC "-//W3C//DTD SVG 1.1//EN" "http://www.w3.org/Graphics/SVG/1.1/DTD/svg11.dtd"><svg t="1700127483300" class="icon" viewBox="0 0 1024 1024" version="1.1" xmlns="http://www.w3.org/2000/svg" p-id="8253" xmlns:xlink="http://www.w3.org/1999/xlink" width="200" height="200"><path d="M510.327467 0c281.8048 0 510.293333 228.4544 510.293333 510.293333 0 281.8048-228.488533 510.293333-510.293333 510.293334C228.488533 1020.586667 0 792.098133 0 510.293333 0 228.4544 228.488533 0 510.327467 0z" fill="#F0F0F0" p-id="8254"></path><path d="M988.8768 687.786667c20.514133-55.296 31.744-115.029333 31.744-177.493334s-11.229867-122.197333-31.744-177.493333H31.778133C11.264 388.096 0 447.829333 0 510.293333s11.264 122.197333 31.744 177.493334l478.549333 44.373333 478.583467-44.373333z" fill="#0A4FA2" p-id="8255"></path><path d="M510.327467 1020.586667c219.374933 0 406.459733-138.4448 478.549333-332.8H31.778133c72.055467 194.3552 259.106133 332.8 478.549334 332.8z" fill="#CB1428" p-id="8256"></path></svg>