<?xml version="1.0" standalone="no"?><!DOCTYPE svg PUBLIC "-//W3C//DTD SVG 1.1//EN" "http://www.w3.org/Graphics/SVG/1.1/DTD/svg11.dtd"><svg t="1642137554150" class="icon" viewBox="0 0 1024 1024" version="1.1" xmlns="http://www.w3.org/2000/svg" p-id="9479" xmlns:xlink="http://www.w3.org/1999/xlink" width="200" height="200"><defs><style type="text/css"></style></defs><path d="M64 512c0 247.4 200.6 448 448 448s448-200.6 448-448S759.4 64 512 64 64 264.6 64 512z" fill="#F9F9F9" p-id="9480"></path><path d="M932.1 356.2H91.9C73.4 406 63.9 458.8 64 512c0 54.8 9.9 107.3 27.9 155.8h840.3C950.6 618 960.1 565.2 960 512c0-54.8-9.9-107.3-27.9-155.8z" fill="#0052B4" p-id="9481"></path><path d="M512 64c-135.8 0-257.5 60.4-339.6 155.8h679.2C769.5 124.4 647.8 64 512 64z m339.6 740.2H172.4C254.6 899.6 376.2 960 512 960s257.5-60.4 339.6-155.8z" fill="#D80027" p-id="9482"></path></svg>