<?xml version="1.0" standalone="no"?><!DOCTYPE svg PUBLIC "-//W3C//DTD SVG 1.1//EN" "http://www.w3.org/Graphics/SVG/1.1/DTD/svg11.dtd"><svg t="1633088644879" class="icon" viewBox="0 0 1024 1024" version="1.1" xmlns="http://www.w3.org/2000/svg" p-id="6625" xmlns:xlink="http://www.w3.org/1999/xlink" width="200" height="200"><defs><style type="text/css"></style></defs><path d="M444.1 69.7c-179.2 27.6-324 160.7-366.6 337-7.8 31.6-12.1 63.6-13 95.6V526c2 76.3 23.7 151.4 63.8 217.9 61.1 101.2 159.9 173.9 274.6 202 175.8 44.3 360.9-21.9 468.8-167.7C979.6 632.5 988.8 436 895.1 280.7c-93.7-155.2-271.8-238.6-451-211z m-115 293.9l30.8 94-80-55.9-80.5 55.9 30.7-94-80-58.2h99l30.8-94.5 30.8 94.5 99 2.2-80.6 56zM598.6 259l22.9 22.9 28-12.3-15.1 29.1 23.5 22.9-32.4-5-15.1 29.1-5-34.7-30.8-5 29.1-14.5-5.1-32.5z m-66 294.2v32.4l-17.9-27.4-31.3 7.8 20.7-25.2-17.3-27.4L517 524l20.7-25.2-3.4 34.1 30.2 11.7-31.9 8.6z m0-338.9v32.4l-17.3-27.4-31.9 7.8 21.2-24.6-17.9-28 30.8 12.3 20.7-25.2-2.8 32.4 30.2 12.3-33 8z m109.6 269l-26.3-19.6-26.3 19.6 10.1-31.3-26.3-19h32.4l10.1-31.3 10.1 29.1h32.4L632.1 452l10.1 31.3z" fill="#CE1126" p-id="6626"></path><path d="M538.2 161.7l-20.7 25.2-30.7-12.3 17.8 27.9-21.2 24.6 31.9-7.8 17.3 27.4v-32.4l33-7.9-30.2-12.3zM537.6 499l-20.7 25.2-30.1-10.7 17.3 27.4-20.7 25.2 31.3-7.8 17.9 27.4v-32.5l31.9-8.3-30.2-11.8zM279.9 210.9l-30.8 94.5h-98.9l79.9 58.2-30.7 94 80.5-55.9 79.9 55.9-30.7-94 80.5-55.9-99-2.3zM605.3 311l5 34.7 15.1-29.1 32.4 5.1-23.4-23 15.1-29-28 12.3-22.9-23 5 32.5-29.1 14.5zM626 430.7l-10.1-29-10.1 31.3h-32.4l26.3 19-10.1 31.3 26.3-19.6 26.3 19.6-10.1-31.3 26.3-21.3z" fill="#FCD116" p-id="6627"></path></svg>